<svg width="257" height="257" viewBox="0 0 257 257" fill="none" xmlns="http://www.w3.org/2000/svg">
<mask id="mask0_6_1171" style="mask-type:alpha" maskUnits="userSpaceOnUse" x="0" y="0" width="257" height="257">
<circle cx="128.811" cy="128.091" r="128.091" fill="white"/>
</mask>
<g mask="url(#mask0_6_1171)">
<rect x="-16.1465" y="-42.6439" width="351.335" height="171.212" fill="#005BBB"/>
<rect x="-16.1465" y="128.568" width="351.335" height="171.212" fill="#FFC700"/>
</g>
<path d="M162.481 77.4432H163.77L174.797 50.5203H151.74L162.481 77.4432ZM185.824 77.4432H187.112L197.996 50.5203H174.94L185.824 77.4432ZM163.34 185.851H186.253V85.606H163.34V185.851Z" fill="white"/>
<path d="M84.1625 151.083L42.4893 85.9242H69.4122L96.3351 129.03L122.685 85.9242H148.606L107.076 151.083V186.169H84.1625V151.083Z" fill="white"/>
<path d="M163.353 85.9242H186.266V186.169H163.353V85.9242Z" fill="white"/>
<mask id="mask1_6_1171" style="mask-type:alpha" maskUnits="userSpaceOnUse" x="0" y="0" width="257" height="257">
<circle cx="128.811" cy="128.091" r="128.091" fill="#C4C4C4"/>
</mask>
<g mask="url(#mask1_6_1171)">
<rect x="18.1055" y="217.425" width="7.66064" height="7.66064" fill="#5D94CD"/>
<rect x="134.932" y="217.425" width="7.66064" height="7.66064" fill="#5D94CD"/>
<rect x="10.4453" y="225.086" width="7.66064" height="7.66064" fill="#5D94CD"/>
<rect x="127.271" y="225.086" width="7.66064" height="7.66064" fill="#5D94CD"/>
<rect x="18.1055" y="225.086" width="7.66064" height="7.66064" fill="#5D94CD"/>
<rect x="134.932" y="225.086" width="7.66064" height="7.66064" fill="#5D94CD"/>
<rect x="25.7666" y="225.086" width="7.66064" height="7.66064" fill="#5D94CD"/>
<rect x="142.592" y="225.086" width="7.66064" height="7.66064" fill="#5D94CD"/>
<rect x="76.5195" y="217.425" width="7.66064" height="7.66064" fill="#5D94CD"/>
<rect x="193.343" y="217.425" width="7.66064" height="7.66064" fill="#5D94CD"/>
<rect x="76.5195" y="209.765" width="7.66064" height="7.66064" fill="#5D94CD"/>
<rect x="193.343" y="209.765" width="7.66064" height="7.66064" fill="#5D94CD"/>
<rect x="68.8564" y="209.765" width="7.66064" height="7.66064" fill="#5D94CD"/>
<rect x="185.683" y="209.765" width="7.66064" height="7.66064" fill="#5D94CD"/>
<rect x="76.5195" y="202.104" width="7.66064" height="7.66064" fill="#5D94CD"/>
<rect x="193.343" y="202.104" width="7.66064" height="7.66064" fill="#5D94CD"/>
<rect x="84.1797" y="194.443" width="7.66064" height="7.66064" fill="#5D94CD"/>
<rect x="201.004" y="194.443" width="7.66064" height="7.66064" fill="#5D94CD"/>
<rect x="91.8398" y="194.443" width="7.66064" height="7.66064" fill="#5D94CD"/>
<rect x="208.665" y="194.443" width="7.66064" height="7.66064" fill="#5D94CD"/>
<rect x="99.501" y="194.443" width="7.66064" height="7.66064" fill="#5D94CD"/>
<rect x="216.325" y="194.443" width="7.66064" height="7.66064" fill="#5D94CD"/>
<rect x="91.8398" y="202.104" width="7.66064" height="7.66064" fill="#5D94CD"/>
<rect x="208.665" y="202.104" width="7.66064" height="7.66064" fill="#5D94CD"/>
<rect x="84.1797" y="202.104" width="7.66064" height="7.66064" fill="#5D94CD"/>
<rect x="201.004" y="202.104" width="7.66064" height="7.66064" fill="#5D94CD"/>
<rect x="84.1797" y="209.765" width="7.66064" height="7.66064" fill="#5D94CD"/>
<rect x="201.004" y="209.765" width="7.66064" height="7.66064" fill="#5D94CD"/>
<rect x="18.1055" y="232.747" width="7.66064" height="7.66064" fill="#5D94CD"/>
<rect x="134.932" y="232.747" width="7.66064" height="7.66064" fill="#5D94CD"/>
<rect x="25.7666" y="232.747" width="7.66064" height="7.66064" fill="#5D94CD"/>
<rect x="142.592" y="232.747" width="7.66064" height="7.66064" fill="#5D94CD"/>
<rect x="33.4268" y="232.747" width="7.66064" height="7.66064" fill="#5D94CD"/>
<rect x="150.252" y="232.747" width="7.66064" height="7.66064" fill="#5D94CD"/>
<rect x="33.4268" y="240.407" width="7.66064" height="7.66064" fill="#5D94CD"/>
<rect x="150.252" y="240.407" width="7.66064" height="7.66064" fill="#5D94CD"/>
<rect x="41.0879" y="240.407" width="7.66064" height="7.66064" fill="#5D94CD"/>
<rect x="157.912" y="240.407" width="7.66064" height="7.66064" fill="#5D94CD"/>
<rect x="25.7666" y="240.407" width="7.66064" height="7.66064" fill="#5D94CD"/>
<rect x="142.592" y="240.407" width="7.66064" height="7.66064" fill="#5D94CD"/>
<rect x="-5.03125" y="225.086" width="7.66064" height="7.66064" fill="#FFEA7B"/>
<rect x="111.793" y="225.086" width="7.66064" height="7.66064" fill="#FFEA7B"/>
<rect x="2.62891" y="217.425" width="7.66064" height="7.66064" fill="#FFEA7B"/>
<rect x="119.453" y="217.425" width="7.66064" height="7.66064" fill="#FFEA7B"/>
<rect x="10.29" y="209.765" width="7.66064" height="7.66064" fill="#FFEA7B"/>
<rect x="127.114" y="209.765" width="7.66064" height="7.66064" fill="#FFEA7B"/>
<rect x="53.3818" y="209.765" width="7.66064" height="7.66064" fill="#FFEA7B"/>
<rect x="170.205" y="209.765" width="7.66064" height="7.66064" fill="#FFEA7B"/>
<rect x="61.042" y="217.425" width="7.66064" height="7.66064" fill="#FFEA7B"/>
<rect x="177.867" y="217.425" width="7.66064" height="7.66064" fill="#FFEA7B"/>
<rect x="68.7031" y="225.086" width="7.66064" height="7.66064" fill="#FFEA7B"/>
<rect x="185.527" y="225.086" width="7.66064" height="7.66064" fill="#FFEA7B"/>
<rect x="17.9512" y="202.104" width="35.4305" height="7.66064" fill="#FFEA7B"/>
<rect x="134.774" y="202.104" width="35.4305" height="7.66064" fill="#FFEA7B"/>
<rect x="76.3633" y="232.747" width="35.4305" height="7.66064" fill="#FFEA7B"/>
<rect x="193.188" y="232.747" width="35.4305" height="7.66064" fill="#FFEA7B"/>
<rect x="76.3633" y="232.747" width="35.4305" height="7.66064" fill="#FFEA7B"/>
<rect x="193.188" y="232.747" width="35.4305" height="7.66064" fill="#FFEA7B"/>
</g>
</svg>
