<svg xmlns="http://www.w3.org/2000/svg" width="256" height="256" fill="none">
  <mask id="a" width="256" height="256" x="0" y="0" maskUnits="userSpaceOnUse" style="mask-type:alpha">
    <circle cx="128" cy="128" r="128" fill="#FFF"/>
  </mask>
  <g mask="url(#a)">
    <path fill="#0057B7" d="M-16.146-42.644h351.335v171.212H-16.146z"/>
    <path fill="#FFD700" d="M-16.146 128.568h351.335V299.78H-16.146z"/>
    <path fill="#FFF" d="M162.481 77.443h1.289l11.027-26.923H151.74l10.741 26.923Zm23.343 0h1.288l10.884-26.923H174.94l10.884 26.923ZM163.34 185.851h22.913V85.606H163.34v100.245ZM84.162 151.083 42.49 85.924h26.923l26.923 43.106 26.35-43.106h25.921l-41.53 65.159v35.086H84.163v-35.086Z"/>
    <path fill="#FFF" d="M163.353 85.924h22.913V186.17h-22.913V85.924Z"/>
    <path fill="#5D94CD" d="M18.105 217.425h7.661v7.661h-7.661zM134.932 217.425h7.661v7.661h-7.661zM10.445 225.086h7.661v7.661h-7.661zM127.271 225.086h7.661v7.661h-7.661z"/>
    <path fill="#5D94CD" d="M18.105 225.086h7.661v7.661h-7.661zM134.932 225.086h7.661v7.661h-7.661zM25.767 225.086h7.661v7.661h-7.661z"/>
    <path fill="#5D94CD" d="M142.592 225.086h7.661v7.661h-7.661zM76.519 217.425h7.661v7.661h-7.661zM193.343 217.425h7.661v7.661h-7.661z"/>
    <path fill="#5D94CD" d="M76.519 209.765h7.661v7.661h-7.661zM193.343 209.765h7.661v7.661h-7.661zM68.856 209.765h7.661v7.661h-7.661z"/>
    <path fill="#5D94CD" d="M185.683 209.765h7.661v7.661h-7.661zM76.519 202.104h7.661v7.661h-7.661z"/>
    <path fill="#5D94CD" d="M193.343 202.104h7.661v7.661h-7.661zM84.18 194.443h7.661v7.661H84.18zM201.004 194.443h7.661v7.661h-7.661z"/>
    <path fill="#5D94CD" d="M91.84 194.443h7.661v7.661H91.84zM208.665 194.443h7.661v7.661h-7.661zM99.501 194.443h7.661v7.661h-7.661z"/>
    <path fill="#5D94CD" d="M216.325 194.443h7.661v7.661h-7.661zM91.84 202.104h7.661v7.661H91.84zM208.665 202.104h7.661v7.661h-7.661z"/>
    <path fill="#5D94CD" d="M84.18 202.104h7.661v7.661H84.18zM201.004 202.104h7.661v7.661h-7.661z"/>
    <path fill="#5D94CD" d="M84.18 209.765h7.661v7.661H84.18zM201.004 209.765h7.661v7.661h-7.661zM18.105 232.747h7.661v7.661h-7.661zM134.932 232.747h7.661v7.661h-7.661zM25.767 232.747h7.661v7.661h-7.661z"/>
    <path fill="#5D94CD" d="M142.592 232.747h7.661v7.661h-7.661zM33.427 232.747h7.661v7.661h-7.661z"/>
    <path fill="#5D94CD" d="M150.252 232.747h7.661v7.661h-7.661zM33.427 240.407h7.661v7.661h-7.661z"/>
    <path fill="#5D94CD" d="M150.252 240.407h7.661v7.661h-7.661zM41.088 240.407h7.661v7.661h-7.661z"/>
    <path fill="#5D94CD" d="M157.912 240.407h7.661v7.661h-7.661zM25.767 240.407h7.661v7.661h-7.661zM142.592 240.407h7.661v7.661h-7.661z"/>
    <path fill="#FFF" d="M-5.031 225.086H2.63v7.661h-7.661zM111.793 225.086h7.661v7.661h-7.661zM2.629 217.425h7.661v7.661H2.629zM119.453 217.425h7.661v7.661h-7.661zM10.29 209.765h7.661v7.661H10.29zM127.114 209.765h7.661v7.661h-7.661zM53.382 209.765h7.661v7.661h-7.661zM170.205 209.765h7.661v7.661h-7.661z"/>
    <path fill="#FFF" d="M61.042 217.425h7.661v7.661h-7.661zM177.867 217.425h7.661v7.661h-7.661zM68.703 225.086h7.661v7.661h-7.661zM185.527 225.086h7.661v7.661h-7.661zM17.951 202.104h35.431v7.661H17.951zM134.774 202.104h35.431v7.661h-35.431zM76.363 232.747h35.431v7.661H76.363zM193.188 232.747h35.431v7.661h-35.431z"/>
    <path fill="#FFF" d="M76.363 232.747h35.431v7.661H76.363zM193.188 232.747h35.431v7.661h-35.431z"/>
  </g>
</svg>
